<?xml version="1.0" encoding="utf-8"?>
<!-- Generator: Adobe Illustrator 28.1.0, SVG Export Plug-In . SVG Version: 6.00 Build 0)  -->
<svg version="1.1" id="Layer_1" xmlns="http://www.w3.org/2000/svg" xmlns:xlink="http://www.w3.org/1999/xlink" x="0px" y="0px"
	 viewBox="0 0 430 200" style="enable-background:new 0 0 430 200;" xml:space="preserve">
<style type="text/css">
	.st0{fill:#EFE3BC;}
	.st1{fill:#10592E;}
	.st2{fill:#C11F24;}
</style>
<g>
	<path class="st0" d="M86.7,112.3V143H65.8c-2.6-1.1-5-6-6.1-8.4c-1.5,14.5-9.9,27.5-22.7,35.9l-0.6-0.7v0.2L15,141.3
		c0,0,33.3-4.5,39.1-29.2c0.4-2.2,0.4-6,0.4-6v-5.2l-0.7-27.2l0.2-3c-3.7,0-8.2,0.7-9.3,0.9c-6.7,1.5-13,5-17.9,9.3
		c-2.6,2.4-4.7,5.4-5.2,8.7c-1.3,8.7,8.6,11.5,15.6,14.1c3.3,1.3,8.9,3.3,12.6,4.3c0,0-0.9,1.5-0.9,1.9
		c-3.2,5.6-12.8,21.2-24.2,15.3c-5.4-3.7-9.9-8-12.3-14c-1.9-5-2.4-10.4-1.3-15.4c0.4-2.4,1.1-4.5,2-6.5c0.6-0.9,0.9-1.7,1.5-2.4
		C18,81.2,23.2,76.7,29,73.4c4.7-2.6,9.7-4.5,14.9-5.8c6.5-2,19.3-3.3,19.3-3.3s-3.3,8.4-3.3,19.5v20.1c0.9,3.3,3.2,8.4,10.4,8.4
		C70.3,112.3,86.7,112.3,86.7,112.3z"/>
	<path class="st0" d="M127.6,112.3V143h-16.2c-2.8-1.3-5.2-6.3-6.3-8.7v9.5c0,0-0.9-0.7-2.4-0.7H75.5v-30.7h24.2V93.1l5.4-3.9v11.7
		c0.2,1.9,0.9,11.3,10.8,11.3L127.6,112.3L127.6,112.3z M101.2,64.7l-10,10.8L78.3,63.4l11.9-11.9l10.4,11.2l11-11.2L123.3,64
		l-10.8,11.5L101.2,64.7z"/>
	<path class="st0" d="M146.2,143.9c0,0-1.1-0.9-2.6-0.9h-27.2v-30.7h24.2v-19l5.6-3.9v11.3c0,2,0.7,11.5,10.8,11.5h10.8v-19l5.4-3.9
		v11.3c0.2,2,0.9,11.5,10.8,11.5h6.5V89.8h6.9v11l-1.3,1.9V144c0,0-0.9-0.9-2.6-0.9h-17.7c-2.8-1.3-5.2-6.3-6.3-8.7v9.7
		c0,0-0.9-0.9-2.4-0.9h-14.5c-2.8-1.3-5.4-6.3-6.3-8.7L146.2,143.9L146.2,143.9z"/>
	<path class="st0" d="M225.4,143V59.6c-1.3-9.1-5.8-16-11.3-21L229,23.9c1.1,4.5,1.9,9.3,1.9,14.1v102L225.4,143z"/>
	<path class="st0" d="M314,112.3V143h-21.4c-3.2-3.7-6.5-9.3-7.6-16.7v6.3c0,17.3-8.6,33.7-22.9,43.5l-0.4-0.7l-0.2,0.2l-21.4-30.7
		c0,0,39.4-8.7,39.4-34V82.7l5.4-2.8l1.1-0.6v14.1l-1.1,2.2v3.7c0,0.2,0,12.8,11,12.8L314,112.3L314,112.3z"/>
	<path class="st0" d="M302.8,143v-30.9l112,0.2c0-9.7-0.9-18.4-6.5-23.6c-4.1-3.9-10.6-4.8-19.9-4.8h-50L329,96.5h-6l36.1-49.7
		l0.4-0.6h17.9l-12.6,19.9h-13.6L341.9,79H388c10.8-0.7,18.4,1.3,23.6,6.1c5.8,5.4,7.4,13.4,7.8,21.9v36H302.8L302.8,143z"/>
</g>
</svg>
